<?xml version="1.0" encoding="utf-8"?>
<!-- Generator: Adobe Illustrator 18.1.0, SVG Export Plug-In . SVG Version: 6.00 Build 0)  -->
<svg version="1.1" id="Calque_1" xmlns="http://www.w3.org/2000/svg" xmlns:xlink="http://www.w3.org/1999/xlink" x="0px" y="0px"
	 width="320px" height="284px" viewBox="0 0 320 284" enable-background="new 0 0 320 284" xml:space="preserve">
<g>
	<path d="M0.5,11c0-3.8,0-7.7,0-11.5c106.7,0,213.3,0,320,0c0,2.2,0,4.3,0,6.5c-0.3,0-0.7-0.1-1,0c-7.5,2.1-15.1,4.1-22.6,6.3
		c-7.3,2.1-13.1,6.3-17.6,12.5c-2.9,4.1-5.9,8.1-8.7,12.2c-10.5,15.6-25.1,23.1-43.9,22.3c-8.9-0.4-17.4-2.8-25.7-5.8
		c-3.5-1.3-7.4-2.1-11.1-2.1c-6.7-0.1-12,3.7-16.6,8.2c-4.6,4.6-9.1,9.5-13.2,14.6c-8.1,10-18.2,17.2-30.2,21.9
		c-17.1,6.7-32.7,3.3-45.5-9.8c-5.7-5.8-10-12.7-13.8-19.8c-5.2-9.6-10.3-19.2-15.6-28.8c-3.6-6.6-9.1-11-16.2-13.3
		c-4-1.3-8.1-2.5-12.2-3.6c-7.7-2-15.6-3.5-22.5-7.8C3,12.3,1.7,11.7,0.5,11z"/>
</g>
</svg>
