<?xml version="1.0" encoding="utf-8"?>
<!-- Generator: Adobe Illustrator 18.1.0, SVG Export Plug-In . SVG Version: 6.00 Build 0)  -->
<svg version="1.1" id="Calque_1" xmlns="http://www.w3.org/2000/svg" xmlns:xlink="http://www.w3.org/1999/xlink" x="0px" y="0px"
	 width="320px" height="284px" viewBox="0 0 320 284" enable-background="new 0 0 320 284" xml:space="preserve">
<g>
	<path d="M0.5,1.1c0-0.5,0-1.1,0-1.6c106.7,0,213.3,0,320,0c0,0.3,0,0.6,0,0.9c-0.3,0-0.7,0-1,0C312,0.7,304.4,1,296.9,1.3
		c-7.3,0.3-13.1,0.9-17.6,1.7c-2.9,0.6-5.9,1.1-8.7,1.7c-10.5,2.2-25.1,3.2-43.9,3.1c-8.9-0.1-17.4-0.4-25.7-0.8
		c-3.5-0.2-7.4-0.3-11.1-0.3c-6.7,0-12,0.5-16.6,1.2c-4.6,0.7-9.1,1.3-13.2,2c-8.1,1.4-18.2,2.4-30.2,3.1
		c-17.1,0.9-32.7,0.5-45.5-1.4c-5.7-0.8-10-1.8-13.8-2.8c-5.2-1.3-10.3-2.7-15.6-4C51.5,3.9,46,3.3,38.9,3c-4-0.2-8.1-0.4-12.2-0.5
		C18.9,2.2,11.1,2,4.1,1.4C3,1.3,1.7,1.2,0.5,1.1z"/>
</g>
</svg>
