<?xml version="1.0" encoding="utf-8"?>
<!-- Generator: Adobe Illustrator 18.0.0, SVG Export Plug-In . SVG Version: 6.00 Build 0)  -->
<!DOCTYPE svg PUBLIC "-//W3C//DTD SVG 1.1//EN" "http://www.w3.org/Graphics/SVG/1.1/DTD/svg11.dtd">
<svg version="1.1" id="Calque_1" xmlns="http://www.w3.org/2000/svg" xmlns:xlink="http://www.w3.org/1999/xlink" x="0px" y="0px"
	 viewBox="0 0 320 284" enable-background="new 0 0 320 284" xml:space="preserve">
<g>
	<path d="M0,0.6C0,0.1,0-0.5,0-1c106.7,0,213.3,0,320,0c0,0.3,0,0.6,0,0.9c-0.3,0-0.7,0-1,0c-7.5,0.3-15.1,0.6-22.6,0.9
		c-7.3,0.3-13.1,0.9-17.6,1.7c-2.9,0.6-5.9,1.1-8.7,1.7c-10.5,2.2-25.1,3.2-43.9,3.1c-8.9-0.1-17.4-0.4-25.7-0.8
		c-3.5-0.2-7.4-0.3-11.1-0.3c-6.7,0-12,0.5-16.6,1.2s-9.1,1.3-13.2,2c-8.1,1.4-18.2,2.4-30.2,3.1c-17.1,0.9-32.7,0.5-45.5-1.4
		c-5.7-0.8-10-1.8-13.8-2.8c-5.2-1.3-10.3-2.7-15.6-4c-3.5-0.9-9-1.5-16.1-1.8c-4-0.2-8.1-0.4-12.2-0.5C18.4,1.7,10.6,1.5,3.6,0.9
		C2.5,0.8,1.2,0.7,0,0.6z"/>
</g>
</svg>
