<?xml version="1.0" encoding="utf-8"?>
<!-- Generator: Adobe Illustrator 18.0.0, SVG Export Plug-In . SVG Version: 6.00 Build 0)  -->
<!DOCTYPE svg PUBLIC "-//W3C//DTD SVG 1.1//EN" "http://www.w3.org/Graphics/SVG/1.1/DTD/svg11.dtd">
<svg version="1.1" id="Calque_1" xmlns="http://www.w3.org/2000/svg" xmlns:xlink="http://www.w3.org/1999/xlink" x="0px" y="0px"
	 viewBox="0 0 320 284" enable-background="new 0 0 320 284" xml:space="preserve">
<g>
	<path d="M320,272.5c0,4.2,0,8.3,0,12.5c-106.7,0-213.3,0-320,0c0-1.8,0-3.7,0-5.5c7.7-2.1,15.4-4.4,23.1-6.4
		c8.7-2.3,15.8-6.9,20.9-14.4c2.5-3.7,5.3-7.3,7.8-11c11.3-16.7,27-24,47.1-22.2c7.8,0.7,15.3,2.6,22.4,5.6
		c9.2,3.9,17.7,2.7,25.1-3.8c4.5-3.9,8.7-8.3,12.5-12.9c8.5-10.4,18-19.4,30.6-24.7c8-3.4,16.3-5.5,25-4.2
		c10.7,1.5,19.3,7,25.8,15.3c5.2,6.7,9.6,14,13.8,21.3c4.7,8,8.8,16.4,13.3,24.6c3.6,6.6,9.1,11.2,16.4,13.5c4,1.3,8.1,2.5,12.2,3.5
		C304.4,265.7,312.8,267.5,320,272.5z"/>
</g>
</svg>
