<?xml version="1.0" encoding="utf-8"?>
<!-- Generator: Adobe Illustrator 18.0.0, SVG Export Plug-In . SVG Version: 6.00 Build 0)  -->
<!DOCTYPE svg PUBLIC "-//W3C//DTD SVG 1.1//EN" "http://www.w3.org/Graphics/SVG/1.1/DTD/svg11.dtd">
<svg version="1.1" id="Calque_1" xmlns="http://www.w3.org/2000/svg" xmlns:xlink="http://www.w3.org/1999/xlink" x="0px" y="0px"
	 viewBox="0 0 320 284" enable-background="new 0 0 320 284" xml:space="preserve">
<g>
	<path d="M320,282.4c0,0.9,0,1.7,0,2.6c-106.7,0-213.3,0-320,0c0-0.4,0-0.8,0-1.2c7.7-0.5,15.4-0.9,23.1-1.3
		c8.7-0.5,15.8-1.4,20.9-3c2.5-0.8,5.3-1.5,7.8-2.3c11.3-3.5,27-5,47.1-4.7c7.8,0.1,15.3,0.5,22.4,1.2c9.2,0.8,17.7,0.6,25.1-0.8
		c4.5-0.8,8.7-1.7,12.5-2.7c8.5-2.2,18-4.1,30.6-5.2c8-0.7,16.3-1.2,25-0.9c10.7,0.3,19.3,1.5,25.8,3.2c5.2,1.4,9.6,2.9,13.8,4.5
		c4.7,1.7,8.8,3.4,13.3,5.2c3.6,1.4,9.1,2.3,16.4,2.8c4,0.3,8.1,0.5,12.2,0.7C304.4,281,312.8,281.3,320,282.4z"/>
</g>
</svg>
