<?xml version="1.0" encoding="utf-8"?>
<!-- Generator: Adobe Illustrator 18.0.0, SVG Export Plug-In . SVG Version: 6.00 Build 0)  -->
<!DOCTYPE svg PUBLIC "-//W3C//DTD SVG 1.1//EN" "http://www.w3.org/Graphics/SVG/1.1/DTD/svg11.dtd">
<svg version="1.1" id="Calque_1" xmlns="http://www.w3.org/2000/svg" xmlns:xlink="http://www.w3.org/1999/xlink" x="0px" y="0px"
	 viewBox="0 0 320 568" enable-background="new 0 0 320 568" xml:space="preserve">
<path d="M0,412.5C0,328.8,0,83.7,0,0c106.7,0,213.3,0,320,0c0,20.2,0,201.8,0,222c-4.1,0.6-8.3,1-12.3,2
	c-25.7,6.2-44.3,20.8-54.4,45.7c-2.8,6.9-6.2,13.7-9.8,20.2c-14,25.2-34.3,42.7-62.7,50.2c-14.4,3.8-29,4.8-43.8,4.8
	c-19,0-38,0.2-56.8,3.5c-14,2.5-26.9,7.4-37.7,17c-6.6,5.8-11.4,13-16.2,20.2c-6,9.1-13,17.3-21.8,23.9C3.2,410.7,1.5,411.6,0,412.5
	z"/>
</svg>
